# xmcd
#
# Track frame offsets: 
#        150
#        36642
#        55025
#        74280
#        91805
#        115845
#        139105
#        168412
#        187812
#
# Disc length: 2698 seconds
#
# Revision: 1
# Processed by: cddbd v1.5.2PL0 Copyright (c) Steve Scherf et al.
# Submitted via: ExactAudioCopyFreeDBPlugin 1.0
#
DISCID=760a8809
DTITLE=村松健 - 夏休みの宿題
DYEAR=1990
DGENRE=New Age
TTITLE0=朝をひとりじめ-on the first train-
TTITLE1=ともしびの歌
TTITLE2=ベルを鳴らして坂道を
TTITLE3=幼い日の君に
TTITLE4=ハマナスの夏
TTITLE5=太陽に近い街
TTITLE6=金魚のまどろみ
TTITLE7=クジラと泳ぐ日
TTITLE8=あおき沼、あおき魚
EXTD=YEAR: 1990
EXTT0=
EXTT1=
EXTT2=
EXTT3=
EXTT4=
EXTT5=
EXTT6=
EXTT7=
EXTT8=
PLAYORDER=
